<?xml version="1.0" encoding="utf-8"?>
<!-- Generator: Adobe Illustrator 14.0.0, SVG Export Plug-In . SVG Version: 6.00 Build 43363)  -->
<!DOCTYPE svg PUBLIC "-//W3C//DTD SVG 1.1//EN" "http://www.w3.org/Graphics/SVG/1.1/DTD/svg11.dtd">
<svg version="1.1" xmlns:svg="http://www.w3.org/2000/svg"
	 xmlns="http://www.w3.org/2000/svg" xmlns:xlink="http://www.w3.org/1999/xlink" x="0px" y="0px" width="600px" height="600px"
	 viewBox="0 0 600 600" enable-background="new 0 0 600 600" xml:space="preserve">
<radialGradient id="SVGID_1_" cx="277.7952" cy="68.5303" r="105.2161" gradientTransform="matrix(2.5784 0 0 -0.7901 -444.9816 558.1301)" gradientUnits="userSpaceOnUse">
	<stop  offset="0" style="stop-color:#676767"/>
	<stop  offset="1" style="stop-color:#656565;stop-opacity:0"/>
</radialGradient>
<path fill="url(#SVGID_1_)" d="M79.859,445.251C28.362,460.992,0,481.803,0,503.854c0,45.909,121.697,83.26,271.277,83.26
	c149.6,0,271.302-37.351,271.302-83.26c0-45.762-121.702-82.995-271.302-82.995C199.286,420.863,131.306,429.525,79.859,445.251z"/>
<radialGradient id="SVGID_2_" cx="277.1799" cy="-32.5737" r="105.2161" gradientTransform="matrix(1.5529 0 0 -0.4758 6.1681 523.2119)" gradientUnits="userSpaceOnUse">
	<stop  offset="0" style="stop-color:#B5B5B5"/>
	<stop  offset="1" style="stop-color:#B5B5B5;stop-opacity:0"/>
</radialGradient>
<path fill="url(#SVGID_2_)" d="M321.313,503.336c-31.015,9.48-48.097,22.015-48.097,35.296c0,27.649,73.296,50.146,163.384,50.146
	c90.102,0,163.4-22.496,163.4-50.146c0-27.562-73.299-49.986-163.4-49.986C393.241,488.647,352.299,493.864,321.313,503.336z"/>
<g>
	
		<linearGradient id="SVGID_3_" gradientUnits="userSpaceOnUse" x1="154.3704" y1="1328.252" x2="1596.7327" y2="1328.252" gradientTransform="matrix(0.315 0 0 0.315 -4.8785 -114.0632)">
		<stop  offset="0" style="stop-color:#0053BD"/>
		<stop  offset="0.9944" style="stop-color:#0032A4"/>
	</linearGradient>
	<path fill="url(#SVGID_3_)" d="M110.615,143.843c-43.121,43.011-66.867,99.877-66.867,160.134
		c0,125.45,101.903,227.501,227.164,227.501c125.269,0,227.18-102.051,227.18-227.501c0-125.043-101.911-226.785-227.18-226.785
		C210.627,77.198,153.703,100.864,110.615,143.843z"/>
	<path fill="#B0D9FF" d="M117.23,150.48c-41.343,41.241-64.125,95.754-64.125,153.498c0,120.281,97.711,218.138,217.796,218.138
		c120.102,0,217.818-97.856,217.818-218.138c0-119.879-97.717-217.412-217.818-217.412C213.13,86.571,158.546,109.266,117.23,150.48
		z"/>
	<g>
		<defs>
			<path id="SVGID_4_" d="M270.912,510.869c114.035,0,206.561-92.905,206.561-206.881c0-113.249-92.516-206.165-206.561-206.165
				c-113.238,0-206.544,92.916-206.544,206.165C64.368,417.964,157.679,510.869,270.912,510.869z"/>
		</defs>
		<clipPath id="SVGID_5_">
			<use xlink:href="#SVGID_4_"  overflow="visible"/>
		</clipPath>
		
			<radialGradient id="SVGID_6_" cx="820.9963" cy="868.4238" r="1065.4473" gradientTransform="matrix(0.315 0 0 0.315 -4.8785 -114.0632)" gradientUnits="userSpaceOnUse">
			<stop  offset="0" style="stop-color:#FFFFFF"/>
			<stop  offset="0.5955" style="stop-color:#57ADFF"/>
			<stop  offset="0.9944" style="stop-color:#C9E6FF"/>
		</radialGradient>
		<path clip-path="url(#SVGID_5_)" fill="url(#SVGID_6_)" d="M270.912,510.869c114.035,0,206.561-92.905,206.561-206.881
			c0-113.249-92.516-206.165-206.561-206.165c-113.238,0-206.544,92.916-206.544,206.165
			C64.368,417.964,157.679,510.869,270.912,510.869z"/>
		
			<linearGradient id="SVGID_7_" gradientUnits="userSpaceOnUse" x1="1053.2776" y1="-253.3364" x2="1053.2776" y2="-1586.5116" gradientTransform="matrix(0.315 0 0 -0.315 -61.1061 4.5339)">
			<stop  offset="0" style="stop-color:#006A00"/>
			<stop  offset="0.2" style="stop-color:#004000"/>
			<stop  offset="1" style="stop-color:#00BD00"/>
		</linearGradient>
		<path clip-path="url(#SVGID_5_)" fill="url(#SVGID_7_)" d="M200.897,116.781c-1.04,0-2.184,0.428-3.348,1.089
			C200.29,117.068,201.579,116.781,200.897,116.781 M268.766,130.016l0.677-9.925l-10.473,0.655l1.382,9.27H268.766
			 M150.528,301.594c-2.113-1.988-0.699-10.608-0.699-10.608s-31.488-16.545-65.767-26.493c-4.227-1.225-2.091-9.932,2.091-13.23
			l-1.387-9.297c-0.693-4.622,7.005-27.148,14.698-29.12c7.699-2-0.705,13.235-0.705,13.235l-7.688,4.637
			c0,0,9.092,10.592,11.199,10.592c2.092,0,5.591-5.31,5.591-5.31l-9.79-6.604l9.091-3.988l0.574-3.489l1.528-0.487l15.062-22.809
			c10.407-4.258,23.199-9.535,24.824-10.31c2.806-1.316,22.387-12.569,25.887-15.213c3.51-2.666,11.187-1.988,13.982-1.988
			c2.812,0,7-1.333,7.698-8.631c0.699-7.281,3.5-8.608,5.607-6.615c2.102,1.967-2.107,5.293,2.796,6.615
			c4.893,1.333,9.092,4.644,12.597,1.333c2.557-2.422-0.867-5.186-3.17-7.271h38.846l4.205-11.947l-9.097-1.321l-33.596-3.305
			v-3.982l-2.676,0.456c3.635-19.987,25.236-16.692,8.972-28.259c-0.986-0.71-15.213,22.418-18.837,21.97
			c-6.562-0.868-15.029-0.938-16.833,1.197c-2.396,2.817,5.363-9.688,12.038-13.479c-7.964,2.346-22.234-4.903-47.964,13.273
			c-8.701,6.15-30.541,31.066-39.528,40.645c-37.968,44.826-41.029,83.175-41.029,84.876c0,3.31,8.04,5.179,8.733,9.167
			c0.704,3.95-13.29,17.218-13.29,23.839c0,3.044-7.005,36.114,8.381,77.496c13.647,39.257,40.054,73.879,43.445,76.046l9.725-5.158
			c0,0-16.091-28.486-16.784-31.141c-0.693-2.647,18.188-41.068,27.295-39.727c9.091,1.29,6.994,3.968,12.591,0.65
			c5.602-3.292,9.096-30.479,15.392-33.113c6.301-2.663,13.29-5.969,12.596-12.592C176.403,315.49,152.619,303.577,150.528,301.594
			 M302.347,106.839l-18.888-6.626l3.5,10.608L302.347,106.839 M231.681,131.35c2.107,0,44.074-27.81,39.881-28.481
			c-4.188-0.655-4.887,0-16.102-1.327c-11.177-1.322-23.084,15.901-25.875,18.562C226.783,122.751,227.726,131.35,231.681,131.35
			 M424.311,331.081l5.42-7.031l-5.42-1.905l-4.062,5.104l-4.734,7.02l4.05,1.909L424.311,331.081 M447.998,354.076l-1.356-10.228
			h-8.785l-0.682,7.659l-8.139-1.269l-2.016-8.3l-4.063-2.559l-4.745,5.745l-4.735-1.268l-1.366,4.452l5.428,1.301v41.479
			l19.159,4.615c-0.445,0.759-0.771,1.41-0.879,1.756c-1.364,4.477,5.406,6.415,10.144,4.477
			c1.753-0.705,12.797-4.952,16.295-13.283c4.879-11.605,8.03-28.314,8.877-33.722l-2.146-4.693l-13.545,5.117l-7.466-1.28H447.998
			 M441.215,184.195c-30.978-46.973-105.41-77.669-105.41-77.669l-19.166,10.039l-2.722-4.453l-6.761-2.563v5.753l6.091,5.115
			l-4.053,1.912l-15.582,1.268l-35.211,19.158l3.381,15.322l-4.075,1.284l-2.015,3.186l11.512,17.223l0.671,5.759l-9.476,1.913
			v11.486l-5.412,1.273l0.677,8.944l-46.058,31.938l1.355,17.852c3.38,4.475,29.798,31.293,29.798,31.293s30.464,1.263,37.237-2.551
			c6.777-3.831,2.025,3.831,4.068,5.748c2.016,1.923,2.709,15.322,4.724,16.601c2.038,1.271,0,8.923,2.709,11.502
			c2.71,2.534,2.71,33.19,2.71,33.19s16.252,27.445,16.252,34.468c0,7.021-0.683,6.382,12.189,5.742
			c12.863-0.628,15.571-5.742,18.281-7.649c2.709-1.908,2.709-6.383,5.417-10.229c2.731-3.839,7.455-18.499,13.556-23.602
			c6.078-5.126,22.343-8.96,23.686-17.879c1.356-8.949,7.443-15.972,7.443-15.972l29.278-30.968l-0.823,4.161l-0.671,15.95
			l8.81-3.187l-0.672-17.25l-3.154-3.343l0.446-0.487c0,0-2.037-3.831-4.734-3.831c-2.712,0-18.974,3.831-21.672,3.196
			c-2.711-0.644-14.228-31.292-16.253-32.549c-2.039-1.279-14.889-22.359-14.889-22.359s29.776,35.751,34.521,49.795
			c2.751,8.18,13.089,0.563,21.497-7.97l2.222,5.429l5.407-1.29l-0.671-6.381h6.088v9.573l-2.024,5.115l-0.694,8.29l5.429,5.119
			l2.71-4.459l8.776-8.311l10.162-5.108l2.721,5.108l1.354,7.027l-2.709,7.655l-5.417,4.47l-2.708,11.491v5.743l-6.091-3.836
			l-0.671-12.118l-8.8,0.648l-4.051,10.842l6.089,8.948l14.216,1.92l11.507-10.868l1.354-21.044l5.127-6.766
			c3.337,8.576,5.722,17.548,5.722,25.914c0,9.167,7.259-4.628,3.707-32.583C477.473,281.282,471.903,214.881,441.215,184.195z
			 M305.792,211.7l-36.561-1.294l15.56-12.759h8.127l12.874,8.928V211.7 M350.498,207.231v5.743h-15.569l1.354,3.841l-9.493,1.289
			l-0.66,3.169l-6.772-1.256l-12.2-2.568l2.038-3.181l2.037-3.846l6.771-7.022l2.72,5.115l10.142-0.646l5.418-5.754l20.999,3.836
			L350.498,207.231 M351.843,198.926l-8.128,1.273l-1.343-5.753l10.143-1.268l1.366-5.743l7.454,7.666l-9.492,3.814V198.926
			 M391.132,397.461l-4.746,3.837l0.674,9.579h6.088v-8.278l5.441-7.043v-14.672l-3.404-0.662L391.132,397.461L391.132,397.461
			 M345.763,378.326c0,0-4.746,1.234,0.662,3.185c5.418,1.93,27.09-31.271,27.09-31.271l-18.291,11.487l-9.472,16.6H345.763
			 M308.901,500.682l-4.052-3.858l-8.127-1.289l-1.343,3.869l-10.836-1.278l-0.681-5.135h-8.123l-8.798,5.135h-15.56l-1.355-3.856
			l-25.041-2.59l-4.063,3.867l-10.138-2.556l-1.359-9.016l-4.735-0.661l-5.418,9.677l-18.273-0.65
			c3.272,1.538,30.551,17.824,72.403,21.214c55.5,4.487,81.896-8.991,81.896-8.991l-2.025-1.951l-24.371-1.918V500.682
			L308.901,500.682z"/>
	</g>
	
		<linearGradient id="SVGID_8_" gradientUnits="userSpaceOnUse" x1="879.7229" y1="665.9473" x2="879.7228" y2="1686.5679" gradientTransform="matrix(0.315 0 0 0.315 -4.8785 -114.0632)">
		<stop  offset="0" style="stop-color:#FFFFFF"/>
		<stop  offset="1" style="stop-color:#94CAFF"/>
	</linearGradient>
	<path fill="url(#SVGID_8_)" d="M115.263,212.417c22.906,19.796,55.463,35.026,93.409,43.039c0,0,43.191-4.339,64.721-4.339
		c37.382,0,98.497-7.569,98.497-7.569c0.628-0.244,1.243-0.493,1.861-0.742c0,0,20.501-16.096,31.055-23.069
		c10.999-7.271,32.705-19.526,32.705-19.526c-32.53-62.11-95.41-104.5-167.623-104.5c-46.149,0.006-88.717,17.565-121.912,46.642
		c-18.291,16.021-29.386,33.71-41.018,55.712C110.761,202.41,110.642,208.417,115.263,212.417z"/>
	<linearGradient id="SVGID_9_" gradientUnits="userSpaceOnUse" x1="289.9543" y1="101.0254" x2="229.4579" y2="402.0986">
		<stop  offset="0" style="stop-color:#FFFFFF"/>
		<stop  offset="0.4972" style="stop-color:#00A100"/>
		<stop  offset="0.9944" style="stop-color:#000000"/>
	</linearGradient>
	<path fill="url(#SVGID_9_)" d="M395.902,145.788c-30.622-26.26-61.787-38.38-61.787-38.38l-17.476,9.156l-2.722-4.453l-6.761-2.563
		v5.753l6.091,5.115l-4.053,1.912l-15.582,1.268l-35.211,19.158l3.381,15.322l-4.075,1.284l-2.01,3.186l11.507,17.223l0.671,5.759
		l-9.476,1.913v11.486l-5.412,1.273l0.677,8.939l-46.058,31.944l1.089,14.336c19.304,4.08,39.967,6.339,61.503,6.339
		c37.409,0,72.238-6.724,101.667-18.259c-4.238-6.463-9.178-14.568-9.178-14.568s4.896,5.884,11.04,13.81
		c26.536-10.673,48.566-25.269,63.78-42.535C426.729,179.617,412.587,161.217,395.902,145.788z M305.792,211.7l-36.561-1.299
		l15.56-12.753h8.127l12.874,8.928V211.7z M350.498,207.231v5.743h-15.569l1.354,3.841l-9.493,1.289l-0.66,3.169l-6.772-1.256
		l-12.2-2.568l2.038-3.181l2.037-3.846l6.771-7.022l2.72,5.115l10.142-0.646l5.418-5.754l20.999,3.836L350.498,207.231z
		 M351.843,198.915v0.011l-8.128,1.273l-1.343-5.753l10.143-1.268l1.366-5.743l7.454,7.666L351.843,198.915z M217.708,163.813
		c2.552-2.422-0.867-5.186-3.175-7.271h38.846l4.209-11.947l-9.096-1.321l-33.601-3.305v-3.982l-2.677,0.45
		c3.642-19.981,25.242-16.687,8.978-28.254c-0.992-0.71-15.219,22.413-18.838,21.97c-6.562-0.868-15.035-0.938-16.839,1.197
		c-2.389,2.817,5.364-9.688,12.038-13.479c-4.231,1.246-5.325-4.464-15.483,0.557c-24.256,13.42-41.273,30.546-41.273,30.546
		c-15.17,14.672-28.114,31.857-38.196,50.918c3.787,4.328,8.04,8.483,12.645,12.465l9.064-13.734
		c10.413-4.253,23.205-9.53,24.83-10.31c2.801-1.316,22.38-12.569,25.881-15.219c3.511-2.66,11.193-1.982,13.983-1.982
		c2.812,0,7.006-1.333,7.699-8.631c0.699-7.281,3.505-8.608,5.607-6.615c2.102,1.967-2.102,5.293,2.801,6.615
		C210.004,163.813,214.198,167.124,217.708,163.813z M231.681,131.35c2.107,0,44.079-27.81,39.881-28.481
		c-4.188-0.655-4.887,0-16.102-1.327c-11.182-1.328-23.084,15.896-25.881,18.556C226.783,122.751,227.726,131.35,231.681,131.35z
		 M268.766,130.016l0.677-9.925l-10.473,0.649l1.387,9.275H268.766z M302.347,106.839l-18.888-6.632l3.5,10.614L302.347,106.839z"/>
</g>
<g transform="matrix(1.121321,0,0,1.121321,-158.8209,-16.99153)">
	
		<linearGradient id="SVGID_10_" gradientUnits="userSpaceOnUse" x1="387.8494" y1="112.3482" x2="387.8494" y2="345.2023" gradientTransform="matrix(1.2524 0 0 -1.2524 45.2803 433.292)">
		<stop  offset="0.0056" style="stop-color:#ED0000"/>
		<stop  offset="0.5449" style="stop-color:#8D0000"/>
		<stop  offset="1" style="stop-color:#BD0000"/>
	</linearGradient>
	<path fill="url(#SVGID_10_)" d="M393.612,162.559c0,75.759,61.636,137.397,137.397,137.397
		c75.757,0,137.393-61.638,137.393-137.397c0-75.76-61.636-137.397-137.393-137.397C455.248,25.162,393.612,86.799,393.612,162.559z
		"/>
	
		<linearGradient id="SVGID_11_" gradientUnits="userSpaceOnUse" x1="387.8494" y1="112.366" x2="387.8494" y2="345.2269" gradientTransform="matrix(1.2524 0 0 -1.2524 45.2803 433.292)">
		<stop  offset="0.0056" style="stop-color:#FF4242"/>
		<stop  offset="0.573" style="stop-color:#FF9494"/>
		<stop  offset="1" style="stop-color:#FFDCDC"/>
	</linearGradient>
	<path fill="url(#SVGID_11_)" d="M401.876,162.559c0,71.204,57.929,129.132,129.133,129.132
		c71.202,0,129.127-57.928,129.127-129.132S602.211,33.426,531.009,33.426C459.805,33.426,401.876,91.355,401.876,162.559z"/>
	
		<linearGradient id="SVGID_12_" gradientUnits="userSpaceOnUse" x1="387.852" y1="116.5533" x2="387.852" y2="339.9806" gradientTransform="matrix(1.2524 0 0 -1.2524 45.2803 433.292)">
		<stop  offset="0" style="stop-color:#FFFFFF"/>
		<stop  offset="0.5" style="stop-color:#FF0000"/>
		<stop  offset="1" style="stop-color:#FFC9C9"/>
	</linearGradient>
	<path fill="url(#SVGID_12_)" d="M406.237,162.559c0,68.802,55.976,124.766,124.772,124.766c68.8,0,124.772-55.964,124.772-124.766
		c0-68.796-55.972-124.77-124.772-124.77C462.213,37.789,406.237,93.764,406.237,162.559z"/>
	<path opacity="0.8" fill="#FFFFFF" enable-background="new    " d="M531.009,53.377c-62.659,0-113.642,50.971-113.642,113.638
		c0,62.658,50.983,113.628,113.642,113.628c62.661,0,113.638-50.97,113.638-113.628C644.647,104.348,593.67,53.377,531.009,53.377z"
		/>
	<path fill="#8D0000" d="M417.367,162.559c0,62.663,50.983,113.628,113.642,113.628c62.661,0,113.638-50.965,113.638-113.628
		c0-62.659-50.977-113.637-113.638-113.637C468.35,48.922,417.367,99.9,417.367,162.559z"/>
	
		<radialGradient id="SVGID_13_" cx="327.3691" cy="147.0332" r="69.9634" gradientTransform="matrix(1.7767 0 0 -1.7767 -50.6327 423.7937)" gradientUnits="userSpaceOnUse">
		<stop  offset="0.6011" style="stop-color:#FFFFFF"/>
		<stop  offset="0.8764" style="stop-color:#EAEAF0"/>
		<stop  offset="0.9142" style="stop-color:#E6E6ED"/>
		<stop  offset="0.95" style="stop-color:#DBDBE5"/>
		<stop  offset="0.9849" style="stop-color:#C8C8D7"/>
		<stop  offset="1" style="stop-color:#BDBDCF"/>
	</radialGradient>
	<path fill="url(#SVGID_13_)" d="M420.151,162.559c0,61.124,49.729,110.851,110.858,110.851
		c61.127,0,110.859-49.727,110.859-110.851c0-61.124-49.732-110.856-110.859-110.856C469.88,51.704,420.151,101.435,420.151,162.559
		z"/>
	<path fill="#771111" d="M448.804,158.935h-19.479c-1.233,0-2.233,1-2.233,2.234v2.777c0,1.234,1,2.234,2.233,2.234h19.479
		c1.234,0,2.234-1,2.234-2.234v-2.777C451.037,159.935,450.038,158.935,448.804,158.935z M632.092,158.935h-19.487
		c-1.233,0-2.234,1-2.234,2.234v2.777c0,1.234,1.001,2.234,2.234,2.234h19.487c1.233,0,2.234-1,2.234-2.234v-2.777
		C634.326,159.935,633.325,158.935,632.092,158.935z M532.401,241.924h-2.783c-1.233,0-2.234,1-2.234,2.234v19.48
		c0,1.234,1.001,2.234,2.234,2.234h2.783c1.234,0,2.234-1,2.234-2.234v-19.48C534.635,242.924,533.635,241.924,532.401,241.924z
		 M532.401,58.64h-2.783c-1.233,0-2.234,1-2.234,2.234v19.479c0,1.234,1.001,2.234,2.234,2.234h2.783c1.234,0,2.234-1,2.234-2.234
		V60.874C534.635,59.641,533.635,58.64,532.401,58.64z"/>
	<path fill="#A00000" d="M429.324,163.946h19.479v-2.777h-19.479V163.946z M612.605,161.168v2.777h19.487v-2.777H612.605z
		 M529.617,263.637h2.783v-19.48h-2.783V263.637z M529.617,80.354h2.783V60.874h-2.783V80.354z"/>
	<path fill="none" stroke="#E0E0E0" stroke-width="20" stroke-linecap="round" stroke-linejoin="round" d="M466.582,91.186
		l63.682,74.552"/>
	<path fill="none" stroke="#BFBFBF" stroke-width="20" stroke-linecap="round" stroke-linejoin="round" d="M512.388,69.333
		l17.874,96.405"/>
	<path fill="none" stroke="#808080" stroke-width="20" stroke-linecap="round" stroke-linejoin="round" d="M562.986,73.311
		l-32.723,92.427"/>
	<path fill="none" stroke="#000000" stroke-width="20" stroke-linecap="round" stroke-linejoin="round" d="M459.748,140.771
		l70.516,24.967l74.55-63.682"/>
</g>
</svg>
