<?xml version="1.0" encoding="UTF-8"?> 
<svg version="1.1" width="960" height="480" 
 xmlns="http://www.w3.org/2000/svg"
 xmlns:xlink="http://www.w3.org/1999/xlink">

<!-- to do:

Break up BG enable and BG clip with logic to generate them from H sequencer

http://forums.nesdev.com/ucp.php?i=pm&mode=view&f=0&p=27204
try zmbv encoder

-->

<defs>

<marker id="mark_tri" viewBox="0 0 10 10" refX="8" refY="5" 
  markerUnits="strokeWidth"
  markerWidth="4" markerHeight="3"
  orient="auto">
<path d="M 0 0 L 10 5 L 0 10 z" fill="#663300"/>
</marker>

<g id="conndot">
<circle r="3" fill="#663300" stroke="none" />
</g>

<g id="rightarrow2">
<path d="M -32 0 L 0 0"
 fill="none" stroke="#663300" stroke-width="2" 
 marker-end="url(#mark_tri)"  />
</g>

<g id="rightarrow4">
<path d="M -64 0 L 0 0"
 fill="none" stroke="#663300" stroke-width="2" 
 marker-end="url(#mark_tri)"  />
</g>

<g id="rightarrow6">
<path d="M -96 0 L 0 0"
 fill="none" stroke="#663300" stroke-width="2" 
 marker-end="url(#mark_tri)"  />
</g>

<g id="rightarrow10">
<path d="M -160 0 L 0 0"
 fill="none" stroke="#663300" stroke-width="2" 
 marker-end="url(#mark_tri)"  />
</g>

<g id="rightarrow16">
<path d="M -256 0 L 0 0"
 fill="none" stroke="#663300" stroke-width="2" 
 marker-end="url(#mark_tri)"  />
</g>

<g id="rd2rarrow">
<path d="M -48 -32 l 32 0 l 0 32 L 0 0"
 fill="none" stroke="#663300" stroke-width="2" 
 marker-end="url(#mark_tri)"  />
</g>

<g id="ru2rarrow">
<path d="M -32 32 l 16 0 l 0 -32 L 0 0"
 fill="none" stroke="#663300" stroke-width="2" 
 marker-end="url(#mark_tri)"  />
</g>

<g id="downrightarrow">
<path d="M -32 -32 l 0 32 L 0 0"
 fill="none" stroke="#663300" stroke-width="2" 
 marker-end="url(#mark_tri)"  />
</g>

<g id="downr1arrow">
<path d="M -16 -48 l 0 48 L 0 0"
 fill="none" stroke="#663300" stroke-width="2" 
 marker-end="url(#mark_tri)"  />
</g>

<g id="downr7arrow">
<path d="M -112 -48 l 0 48 L 0 0"
 fill="none" stroke="#663300" stroke-width="2" 
 marker-end="url(#mark_tri)"  />
</g>

<g id="upr1arrow">
<path d="M -16 48 l 0 -48 L 0 0"
 fill="none" stroke="#663300" stroke-width="2" 
 marker-end="url(#mark_tri)"  />
</g>

<g id="upr7arrow">
<path d="M -112 48 l 0 -48 L 0 0"
 fill="none" stroke="#663300" stroke-width="2" 
 marker-end="url(#mark_tri)"  />
</g>

<g id="downarrow">
<path d="M 0 -32 L 0 0"
 fill="none" stroke="#663300" stroke-width="2" 
 marker-end="url(#mark_tri)"  />
</g>

<g id="uparrow">
<path d="M 0 32 L 0 0"
 fill="none" stroke="#663300" stroke-width="2" 
 marker-end="url(#mark_tri)"  />
</g>

<g id="loopbackarrow">
<path d="M 16 0 l 0 8 l -16 0 L 0 0"
 fill="none" stroke="#663300" stroke-width="2" 
 marker-end="url(#mark_tri)"  />
</g>

<g id="andgate">
<path d="M 1 1 l 0 30 l 15 0 q 6 0 10.5 -4.5 t 4.5 -10.5 -4.5 -10.5 -10.5 -4.5 Z"
 fill="#FFCC99" stroke="#663300" stroke-width="2" />
</g>

<g id="orgate">
<path d="M 1 1 q 12 15 0 30 l 10 0 q 12 0 20 -15 -8 -15 -20 -15 Z"
 fill="#FFCC99" stroke="#663300" stroke-width="2" />
</g>

<g id="notgate">
<path d="M 1 1 l 0 30 l 22 -15 a 4 4 0 1 1 8 0 a 4 4 0 1 1 -8 0 Z"
 fill="#FFCC99" stroke="#663300" stroke-width="2" />
</g>

<g id="data7x2">
<path d="M 1 47 l 94 0 16 -46 -94 0 Z"
 fill="#FFCC99" stroke="#663300" stroke-width="2" />
</g>

<g id="data6x2">
<path d="M 1 47 l 78 0 16 -46 -78 0 Z"
 fill="#FFCC99" stroke="#663300" stroke-width="2" />
</g>

<g id="data5x2">
<path d="M 1 47 l 62 0 16 -46 -62 0 Z"
 fill="#FFCC99" stroke="#663300" stroke-width="2" />
</g>

<g id="Horz_seq">
<rect x="1" y="1" width="94" height="46" fill="#FFCC99" stroke="#663300" stroke-width="2" />
<text text-anchor="middle" fill="#663300" font-family="sans-serif" font-size="12" >
<tspan x="48" y="21">Horizontal</tspan><tspan x="48" y="37">sequencer</tspan>
</text>
</g>

<g id="circle48">
<path d="M 24 1 q -9 0 -16 7 t -7 16 7 16 16 7 16 -7 7 -16 -7 -16 -16 -7 Z"
 fill="#FFCC99" stroke="#663300" stroke-width="2" />
</g>

<g id="Clip_window">
<use xlink:href="#circle48" />
<text text-anchor="middle" fill="#663300" font-family="sans-serif" font-size="12" >
<tspan x="24" y="29">/Clip</tspan>
</text>
</g>

<g id="Pixel">
<use xlink:href="#circle48" />
<text text-anchor="middle" fill="#663300" font-family="sans-serif" font-size="12" >
<tspan x="24" y="29">Pixel</tspan>
</text>
</g>

<g id="Render_enable">
<use xlink:href="#circle48" />
<text text-anchor="middle" fill="#663300" font-family="sans-serif" font-size="12" >
<tspan x="24" y="29">Render</tspan>
</text>
</g>

<g id="Secondary_OAM">
<use xlink:href="#data6x2" />
<text text-anchor="middle" fill="#663300" font-family="sans-serif" font-size="12"><tspan x="50" y="21">Secondary</tspan><tspan x="46" y="37">OAM</tspan></text>
</g>

<g id="NT_pos">
<rect x="1" y="1" width="94" height="78" fill="#FFCC99" stroke="#663300" stroke-width="2" />
<text text-anchor="middle" fill="#663300" font-family="sans-serif" font-size="12"><tspan x="48" y="21">Nametable</tspan><tspan x="48" y="37">position</tspan><tspan x="48" y="53">counter</tspan><tspan x="48" y="69">(Loopy's "v")</tspan></text>
</g>

<g id="V_fetch">
<rect x="1" y="1" width="78" height="62" fill="#FFCC99" stroke="#663300" stroke-width="2" />
<text text-anchor="middle" fill="#663300" font-family="sans-serif" font-size="12">
<tspan x="40" y="21">Video</tspan><tspan x="40" y="37">memory</tspan><tspan x="40" y="53">fetch</tspan>
</text>
</g>

<g id="BG_shifter">
<rect x="1" y="1" width="94" height="62" fill="#FFCC99" stroke="#663300" stroke-width="2" />
<text text-anchor="middle" fill="#663300" font-family="sans-serif" font-size="12">
<tspan x="48" y="21">Background</tspan><tspan x="48" y="37">pixel</tspan><tspan x="48" y="53">shifter</tspan>
</text>
</g>

<g id="Fine_scroll">
<use xlink:href="#data5x2" />
<text text-anchor="middle" fill="#663300" font-family="sans-serif" font-size="12"><tspan x="42" y="21">Fine</tspan><tspan x="38" y="37">scroll</tspan></text>
</g>

<g id="mux">
<path d="M 1 1 l 0 62 l 32 -16 0 -30 Z"
 fill="#FFCC99" stroke="#663300" stroke-width="2" />
</g>

<g id="Obj_shifter">
<rect x="1" y="1" width="78" height="62" fill="#FFCC99" stroke="#663300" stroke-width="2" />
<text text-anchor="middle" fill="#663300" font-family="sans-serif" font-size="12">
<tspan x="40" y="21">Sprite</tspan><tspan x="40" y="37">pixel</tspan><tspan x="40" y="53">shifters</tspan>
</text>
</g>

<g id="Frontmost">
<rect x="1" y="1" width="94" height="62" fill="#FFCC99" stroke="#663300" stroke-width="2" />
<text text-anchor="middle" fill="#663300" font-family="sans-serif" font-size="12">
<tspan x="48" y="21">Pick the</tspan><tspan x="48" y="37">frontmost</tspan><tspan x="48" y="53">opaque pixel</tspan>
</text>
</g>

<g id="bg_enable">
<use xlink:href="#data5x2" />
<text text-anchor="middle" fill="#663300" font-family="sans-serif" font-size="12"><tspan x="42" y="21">BG</tspan><tspan x="38" y="37">enable</tspan></text>
</g>

<g id="bg_clip">
<use xlink:href="#data5x2" />
<text text-anchor="middle" fill="#663300" font-family="sans-serif" font-size="12"><tspan x="42" y="21">BG</tspan><tspan x="38" y="37">/clip</tspan></text>
</g>

<g id="sprite_enable">
<use xlink:href="#data5x2" />
<text text-anchor="middle" fill="#663300" font-family="sans-serif" font-size="12"><tspan x="42" y="21">Sprite</tspan><tspan x="38" y="37">enable</tspan></text>
</g>

<g id="sprite_clip">
<use xlink:href="#data5x2" />
<text text-anchor="middle" fill="#663300" font-family="sans-serif" font-size="12"><tspan x="42" y="21">Sprite</tspan><tspan x="38" y="37">/clip</tspan></text>
</g>

<g id="Enables">
<rect x="1" y="1" width="94" height="62" fill="#FFCC99" stroke="#663300" stroke-width="2" />
<text text-anchor="middle" fill="#663300" font-family="sans-serif" font-size="12">
<tspan x="48" y="21">Background</tspan><tspan x="48" y="37">and sprite</tspan><tspan x="48" y="53">enables</tspan>
</text>
</g>

<g id="Priority_mux">
<rect x="1" y="1" width="94" height="62" fill="#FFCC99" stroke="#663300" stroke-width="2" />
<text text-anchor="middle" fill="#663300" font-family="sans-serif" font-size="12">
<tspan x="48" y="21">Priority</tspan><tspan x="48" y="37">multiplexer</tspan><tspan x="48" y="53">(compositor)</tspan>
</text>
</g>

<g id="Monochrome">
<use xlink:href="#data7x2" />
<text text-anchor="middle" fill="#663300" font-family="sans-serif" font-size="12">
<tspan x="58" y="21">Monochrome</tspan><tspan x="54" y="37">flag</tspan></text>
</g>

<g id="Palette_lookup">
<rect x="1" y="1" width="78" height="46" fill="#FFCC99" stroke="#663300" stroke-width="2" />
<text text-anchor="middle" fill="#663300" font-family="sans-serif" font-size="12">
<tspan x="40" y="21">Palette</tspan><tspan x="40" y="37">lookup</tspan></text>
</g>

<g id="Emphasis">
<use xlink:href="#data6x2" />
<text text-anchor="middle" fill="#663300" font-family="sans-serif" font-size="12">
<tspan x="50" y="21">Emphasis</tspan><tspan x="46" y="37">flags</tspan></text>
</g>

<g id="Signal_generation">
<rect x="1" y="1" width="94" height="46" fill="#FFCC99" stroke="#663300" stroke-width="2" />
<text text-anchor="middle" fill="#663300" font-family="sans-serif" font-size="12">
<tspan x="48" y="21">Signal</tspan><tspan x="48" y="37">generation</tspan></text>
</g>

</defs>

<use xlink:href="#downarrow" x="48" y="64" />
<use xlink:href="#rightarrow2" x="112" y="24" />
<use xlink:href="#Horz_seq" x="0" y="0" />

<use xlink:href="#Clip_window" x="112" y="0" />

<use xlink:href="#uparrow" x="208" y="128" />
<use xlink:href="#rightarrow4" x="288" y="176" />
<use xlink:href="#Secondary_OAM" x="144" y="160" />

<use xlink:href="#uparrow" x="48" y="144" />
<use xlink:href="#Render_enable" x="24" y="160" />

<use xlink:href="#rightarrow6" x="192" y="96" />
<use xlink:href="#NT_pos" x="0" y="64" />

<use xlink:href="#loopbackarrow" x="224" y="128" />
<use xlink:href="#rightarrow4" x="288" y="96" />
<use xlink:href="#downrightarrow" x="288" y="160" />
<use xlink:href="#V_fetch" x="192" y="64" />

<!-- pixel shifters -->
<use xlink:href="#rightarrow6" x="464" y="96" />
<use xlink:href="#BG_shifter" x="288" y="64" />

<use xlink:href="#downarrow" x="480" y="72" />
<use xlink:href="#Fine_scroll" x="432" y="0" />

<use xlink:href="#rightarrow16" x="736" y="96" />
<use xlink:href="#mux" x="464" y="64" />

<use xlink:href="#rightarrow4" x="416" y="176" />
<use xlink:href="#Obj_shifter" x="288" y="144" />

<use xlink:href="#rightarrow16" x="736" y="160" />
<use xlink:href="#Frontmost" x="416" y="144" />

<!-- clipping -->
<use xlink:href="#downr1arrow" x="560" y="72" />
<use xlink:href="#bg_clip" x="512" y="0" />

<use xlink:href="#upr1arrow" x="560" y="184" />
<use xlink:href="#sprite_clip" x="512" y="208" />

<use xlink:href="#upr1arrow" x="560" y="88" />
<use xlink:href="#downr1arrow" x="560" y="168" />
<use xlink:href="#Clip_window" x="520" y="104" />

<use xlink:href="#rightarrow10" x="736" y="176" />
<use xlink:href="#orgate" x="556" y="160" />

<use xlink:href="#rightarrow10" x="736" y="80" />
<use xlink:href="#orgate" x="556" y="64" />

<!-- rendering enable -->
<use xlink:href="#downr7arrow" x="736" y="88" />
<use xlink:href="#downr1arrow" x="640" y="120" />
<use xlink:href="#conndot" x="624" y="88" />
<use xlink:href="#bg_enable" x="592" y="0" />

<use xlink:href="#upr7arrow" x="736" y="168" />
<use xlink:href="#upr1arrow" x="640" y="136" />
<use xlink:href="#conndot" x="624" y="168" />
<use xlink:href="#sprite_enable" x="592" y="208" />

<use xlink:href="#rightarrow2" x="688" y="128" />
<use xlink:href="#orgate" x="636" y="112" />

<use xlink:href="#Render_enable" x="688" y="104" />

<!-- Compositor -->
<use xlink:href="#rd2rarrow" x="800" y="120" />
<use xlink:href="#andgate" x="736" y="72" />
<use xlink:href="#ru2rarrow" x="800" y="136" />
<use xlink:href="#andgate" x="736" y="152" />

<use xlink:href="#rightarrow4" x="912" y="112" />
<use xlink:href="#Priority_mux" x="800" y="96" />
<use xlink:href="#Pixel" x="912" y="88" />

<!-- Pixel output section -->
<use xlink:href="#rightarrow2" x="656" y="312" />
<use xlink:href="#Pixel" x="592" y="288" />

<use xlink:href="#rightarrow6" x="816" y="312" />
<use xlink:href="#Palette_lookup" x="656" y="288" />

<use xlink:href="#downr1arrow" x="768" y="296" />
<use xlink:href="#Monochrome" x="720" y="224" />

<use xlink:href="#rightarrow2" x="816" y="296" />
<use xlink:href="#notgate" x="768" y="280" />

<use xlink:href="#rightarrow2" x="864" y="304" />
<use xlink:href="#andgate" x="816" y="288" />

<use xlink:href="#downarrow" x="912" y="288" />
<use xlink:href="#Emphasis" x="848" y="224" />

<use xlink:href="#Signal_generation" x="864" y="288" />

</svg>
