<svg xmlns="http://www.w3.org/2000/svg" width="272" height="156" viewBox="-8 -8 272 156">
 <g transform="matrix(-1,0,0,1,256,0)">
  <g stroke="#000" fill="none">
   <path d="m2 120.25c0 21 28 21 28 0v-115c0-1.4142-1.5858-3-3-3h-22c-1.4142 0-3 1.5858-3 3z" stroke-width="4"/>
   <path d="m2 77.25h28" stroke-width="4"/>
   <circle stroke-linejoin="round" stroke-width="3" stroke-linecap="round" stroke-dashoffset="2" cy="122" cx="16" r="5"/>
   <circle stroke-linejoin="round" cx="16" stroke-linecap="round" stroke-dashoffset="2" cy="106" r="5" stroke-width="3"/>
   <circle stroke-linejoin="round" stroke-width="3" stroke-linecap="round" stroke-dashoffset="2" cy="90" cx="16" r="5"/>
   <circle stroke-linejoin="round" cx="16" stroke-linecap="round" stroke-dashoffset="2" cy="64" r="5" stroke-width="3"/>
   <circle stroke-linejoin="round" stroke-width="3" stroke-linecap="round" stroke-dashoffset="2" cy="48" cx="16" r="5"/>
   <circle stroke-linejoin="round" cx="16" stroke-linecap="round" stroke-dashoffset="2" cy="32" r="5" stroke-width="3"/>
   <circle stroke-linejoin="round" stroke-width="3" stroke-linecap="round" stroke-dashoffset="2" cy="16" cx="16" r="5"/>
  </g>
  <g transform="translate(208,20)" stroke="#000" fill="none">
   <path d="m2 15c0-15 15.615-14.385 21-9l18 18c2.6352 2.6352 5 6.2732 5 10v36c0 5.6568-6.3432 12-12 12h-20c-5.6569 0-12-6.343-12-12z" stroke-width="4"/>
   <circle stroke-linejoin="round" cx="16" stroke-linecap="round" stroke-dashoffset="2" cy="20" r="5" stroke-width="3"/>
   <circle stroke-linejoin="round" stroke-width="3" stroke-linecap="round" stroke-dashoffset="2" cy="36" cx="16" r="5"/>
   <circle stroke-linejoin="round" cx="16" stroke-linecap="round" stroke-dashoffset="2" cy="52" r="5" stroke-width="3"/>
   <circle stroke-linejoin="round" stroke-width="3" stroke-linecap="round" stroke-dashoffset="2" cy="68" cx="16" r="5"/>
   <circle stroke-linejoin="round" cx="32" stroke-linecap="round" transform="translate(0,-3)" stroke-dashoffset="2" cy="39" r="5" stroke-width="3"/>
   <circle stroke-linejoin="round" stroke-width="3" stroke-linecap="round" stroke-dashoffset="2" cy="52" cx="32" r="5"/>
   <circle stroke-linejoin="round" cx="32" stroke-linecap="round" stroke-dashoffset="2" cy="68" r="5" stroke-width="3"/>
  </g>
  <path d="m16 16h224v40" stroke="#000" stroke-linecap="round" stroke-width="1px" fill="none"/>
  <path d="m16 32h64v24h98c0-8 12-8 12 0h34" stroke="#000" stroke-linecap="round" stroke-width="1px" fill="none"/>
  <path d="m224 72h-34c0-8-12-8-12 0h-114v-24h-48" stroke="#000" stroke-linecap="round" stroke-width="1px" fill="none"/>
  <path d="m16 64h32v24h130c0-8 12-8 12 0h34" stroke="#000" stroke-linecap="round" stroke-width="1px" fill="none"/>
  <path d="m224 40h-40v82h-168" stroke="#000" stroke-linecap="round" stroke-width="1px" fill="none"/>
 </g>
 <text style="text-anchor:middle;text-align:center" font-size="14px" font-family="Droid Sans" fill="#000000">
  <tspan x="128" y="14">+5V</tspan>
  <tspan y="54" x="128">Clock</tspan>
  <tspan x="128" y="70">Latch</tspan>
  <tspan y="86" x="128">Data 0</tspan>
  <tspan x="128" y="120">Ground</tspan>
 </text>
</svg>
