<?xml version="1.0" encoding="UTF-8" standalone="no"?>
<!-- Created with Sodipodi ("http://www.sodipodi.com/") -->
<svg
   xmlns:dc="http://purl.org/dc/elements/1.1/"
   xmlns:cc="http://creativecommons.org/ns#"
   xmlns:rdf="http://www.w3.org/1999/02/22-rdf-syntax-ns#"
   xmlns:svg="http://www.w3.org/2000/svg"
   xmlns="http://www.w3.org/2000/svg"
   xmlns:xlink="http://www.w3.org/1999/xlink"
   xmlns:sodipodi="http://sodipodi.sourceforge.net/DTD/sodipodi-0.dtd"
   xmlns:inkscape="http://www.inkscape.org/namespaces/inkscape"
   version="1.0"
   x="0.00000000"
   y="0.00000000"
   width="117"
   height="60"
   viewBox="0 0 128 128"
   id="svg548"
   sodipodi:version="0.32"
   inkscape:version="0.46"
   sodipodi:docname="Template-info.svg"
   sodipodi:docbase="/home/quarl/Desktop"
   inkscape:output_extension="org.inkscape.output.svg.inkscape">
  <metadata
     id="metadata2094">
    <rdf:RDF>
      <cc:Work
         rdf:about="">
        <dc:format>image/svg+xml</dc:format>
        <dc:type
           rdf:resource="http://purl.org/dc/dcmitype/StillImage" />
      </cc:Work>
    </rdf:RDF>
  </metadata>
  <sodipodi:namedview
     inkscape:window-height="667"
     inkscape:window-width="908"
     inkscape:pageshadow="2"
     inkscape:pageopacity="0.0"
     guidetolerance="10.0"
     gridtolerance="10.0"
     objecttolerance="10.0"
     borderopacity="1.0"
     bordercolor="#666666"
     pagecolor="#ffffff"
     id="base"
     width="117px"
     height="60px"
     inkscape:zoom="1.6958333"
     inkscape:cx="141.97667"
     inkscape:cy="32.475819"
     inkscape:window-x="50"
     inkscape:window-y="70"
     inkscape:current-layer="svg548"
     showgrid="false" />
  <defs
     id="defs738">
    <radialGradient
       spreadMethod="pad"
       gradientUnits="userSpaceOnUse"
       id="XMLID_21_"
       r="59.340599"
       fy="22.9419"
       fx="66.7061"
       cy="22.9419"
       cx="66.7061"
       gradientTransform="matrix(1.278777,0,0,1.278777,-41.22182,13.46488)">
      <stop
         id="stop721"
         offset="0.00000000"
         style="stop-color:#0066cc;stop-opacity:1;" />
      <stop
         id="stop722"
         offset="1.00000000"
         style="stop-color:#003399;stop-opacity:1;" />
      <midPointStop
         id="midPointStop139"
         style="stop-color:#0066CC"
         offset="0" />
      <midPointStop
         id="midPointStop141"
         style="stop-color:#0066CC"
         offset="0.5" />
      <midPointStop
         id="midPointStop143"
         style="stop-color:#003399"
         offset="1" />
    </radialGradient>
    <linearGradient
       spreadMethod="pad"
       gradientUnits="userSpaceOnUse"
       id="XMLID_22_"
       y2="44.681999"
       x2="85.759804"
       y1="12.79"
       x1="85.759804"
       gradientTransform="matrix(1.278777,0,0,1.278777,-41.22182,13.46488)">
      <stop
         id="stop729"
         offset="0.00000000"
         style="stop-color:#ffffff;stop-opacity:1;" />
      <stop
         id="stop730"
         offset="1.00000000"
         style="stop-color:#0d3692;stop-opacity:1;" />
      <midPointStop
         id="midPointStop731"
         style="stop-color:#FFFFFF"
         offset="0" />
      <midPointStop
         id="midPointStop732"
         style="stop-color:#FFFFFF"
         offset="0.5" />
      <midPointStop
         id="midPointStop733"
         style="stop-color:#0D3692"
         offset="1" />
    </linearGradient>
    <linearGradient
       inkscape:collect="always"
       xlink:href="#XMLID_21_"
       id="linearGradient2825"
       gradientUnits="userSpaceOnUse"
       x1="100.29281"
       y1="62.243259"
       x2="182.82446"
       y2="62.243259"
       gradientTransform="translate(13.04413,2.020394)" />
    <linearGradient
       inkscape:collect="always"
       xlink:href="#XMLID_21_"
       id="linearGradient2829"
       gradientUnits="userSpaceOnUse"
       x1="100.29281"
       y1="62.243259"
       x2="182.82446"
       y2="62.243259"
       gradientTransform="translate(13.04413,2.020394)" />
    <linearGradient
       inkscape:collect="always"
       xlink:href="#XMLID_21_"
       id="linearGradient2837"
       gradientUnits="userSpaceOnUse"
       x1="-61.091499"
       y1="64.263641"
       x2="36.680729"
       y2="64.263641" />
    <linearGradient
       inkscape:collect="always"
       xlink:href="#XMLID_21_"
       id="linearGradient2841"
       gradientUnits="userSpaceOnUse"
       x1="-61.091499"
       y1="64.263641"
       x2="36.680729"
       y2="64.263641" />
  </defs>
  <path
     transform="matrix(1,0,-0.12772,1,0,0)"
     style="font-size:129.37565613px;opacity:0.20967742;fill:black;fill-opacity:1"
     d="M 39.365928,117.13896 L 39.365928,126.23569 L 35.449283,126.23569 C 24.962727,126.23567 17.929618,124.67743 14.349932,121.56098 C 10.812279,118.4445 9.0434732,112.23262 9.043509,102.92533 L 9.043509,87.82729 C 9.0434732,81.468028 7.9063836,77.06707 5.6322368,74.624403 C 3.3580252,72.181796 -0.76918886,70.960478 -6.7494178,70.960444 L -10.602892,70.960444 L -10.602892,61.92689 L -6.7494178,61.92689 C -0.72707443,61.926933 3.4001396,60.726672 5.6322368,58.326102 C 7.9063836,55.883512 9.0434732,51.524669 9.043509,45.249559 L 9.043509,30.088349 C 9.0434732,20.781135 10.812279,14.590314 14.349932,11.515867 C 17.929618,8.3994932 24.962727,6.8412593 35.449283,6.841161 L 39.365928,6.841161 L 39.365928,15.874715 L 35.070252,15.874715 C 29.132056,15.874804 25.257528,16.801322 23.446658,18.65427 C 21.635688,20.507392 20.730227,24.402976 20.730275,30.341036 L 20.730275,46.007619 C 20.730227,52.619644 19.761595,57.420689 17.824376,60.410769 C 15.929182,63.400938 12.665314,65.42243 8.0327617,66.475253 C 12.707429,67.612381 15.992354,69.675988 17.887548,72.66608 C 19.782653,75.656237 20.730227,80.436225 20.730275,87.006057 L 20.730275,102.67264 C 20.730227,108.61078 21.635688,112.50636 23.446658,114.35941 C 25.257528,116.21243 29.132056,117.13895 35.070252,117.13896 L 39.365928,117.13896"
     id="text14051" />
  <path
     transform="matrix(1,0,-0.12772,1,0,0)"
     style="font-size:129.37565613px;opacity:0.20967742;fill:black;fill-opacity:1"
     d="M 6.811588,117.13896 L 6.811588,126.23569 L 2.8949422,126.23569 C -7.5916129,126.23567 -14.624723,124.67743 -18.204408,121.56098 C -21.742061,118.4445 -23.510867,112.23262 -23.510831,102.92533 L -23.510831,87.82729 C -23.510867,81.468028 -24.647957,77.06707 -26.922104,74.624403 C -29.196315,72.181796 -33.323529,70.960478 -39.303758,70.960444 L -43.157232,70.960444 L -43.157232,61.92689 L -39.303758,61.92689 C -33.281415,61.926933 -29.154201,60.726672 -26.922104,58.326102 C -24.647957,55.883512 -23.510867,51.524669 -23.510831,45.249559 L -23.510831,30.088349 C -23.510867,20.781135 -21.742061,14.590314 -18.204408,11.515867 C -14.624723,8.3994932 -7.5916129,6.8412593 2.8949422,6.841161 L 6.811588,6.841161 L 6.811588,15.874715 L 2.5159119,15.874715 C -3.4222844,15.874804 -7.2968119,16.801322 -9.1076822,18.65427 C -10.918653,20.507392 -11.824113,24.402976 -11.824066,30.341036 L -11.824066,46.007619 C -11.824113,52.619644 -12.792745,57.420689 -14.729964,60.410769 C -16.625158,63.400938 -19.889026,65.42243 -24.521579,66.475253 C -19.846912,67.612381 -16.561986,69.675988 -14.666792,72.66608 C -12.771688,75.656237 -11.824113,80.436225 -11.824066,87.006057 L -11.824066,102.67264 C -11.824113,108.61078 -10.918653,112.50636 -9.1076822,114.35941 C -7.2968119,116.21243 -3.4222844,117.13895 2.5159119,117.13896 L 6.811588,117.13896"
     id="text14055" />
  <path
     transform="matrix(1,0,-0.12772,1,0,0)"
     style="font-size:129.37565613px;opacity:0.20967742;fill:black;fill-opacity:1"
     d="M 115.43892,117.13898 L 119.86094,117.13898 C 125.75694,117.13896 129.58936,116.2335 131.35819,114.42259 C 133.16908,112.61166 134.07454,108.69502 134.07458,102.67266 L 134.07458,87.006073 C 134.07454,80.43624 135.02212,75.656252 136.91731,72.666095 C 138.81242,69.676003 142.09734,67.612396 146.77209,66.475268 C 142.09734,65.422446 138.81242,63.400953 136.91731,60.410784 C 135.02212,57.420704 134.07454,52.619659 134.07458,46.007635 L 134.07458,30.341051 C 134.07454,24.360877 133.16908,20.465292 131.35819,18.654286 C 129.58936,16.801337 125.75694,15.87482 119.86094,15.87473 L 115.43892,15.87473 L 115.43892,6.8411763 L 119.41874,6.8411763 C 129.90522,6.8412746 136.89621,8.3995085 140.39175,11.515883 C 143.92932,14.59033 145.69813,20.781151 145.69817,30.088365 L 145.69817,45.249574 C 145.69813,51.524684 146.83522,55.883527 149.10944,58.326118 C 151.38357,60.726687 155.51079,61.926948 161.4911,61.926905 L 165.40775,61.926905 L 165.40775,70.960459 L 161.4911,70.960459 C 155.51079,70.960493 151.38357,72.181812 149.10944,74.624418 C 146.83522,77.067085 145.69813,81.468043 145.69817,87.827305 L 145.69817,102.92534 C 145.69813,112.23263 143.92932,118.44451 140.39175,121.561 C 136.89621,124.67745 129.90522,126.23568 119.41874,126.2357 L 115.43892,126.2357 L 115.43892,117.13898"
     id="text14061" />
  <path
     transform="matrix(1,0,-0.12772,1,0,0)"
     style="font-size:129.37565613px;opacity:0.20967742;fill:black;fill-opacity:1"
     d="M 148.00178,117.13898 L 152.4238,117.13898 C 158.31979,117.13896 162.15221,116.2335 163.92105,114.42259 C 165.73193,112.61166 166.63739,108.69502 166.63743,102.67266 L 166.63743,87.006073 C 166.63739,80.43624 167.58497,75.656252 169.48016,72.666095 C 171.37527,69.676003 174.66019,67.612396 179.33494,66.475268 C 174.66019,65.422446 171.37527,63.400953 169.48016,60.410784 C 167.58497,57.420704 166.63739,52.619659 166.63743,46.007635 L 166.63743,30.341051 C 166.63739,24.360877 165.73193,20.465292 163.92105,18.654286 C 162.15221,16.801337 158.31979,15.87482 152.4238,15.87473 L 148.00178,15.87473 L 148.00178,6.8411763 L 151.98159,6.8411763 C 162.46807,6.8412746 169.45906,8.3995085 172.9546,11.515883 C 176.49217,14.59033 178.26098,20.781151 178.26102,30.088365 L 178.26102,45.249574 C 178.26098,51.524684 179.39807,55.883527 181.6723,58.326118 C 183.94642,60.726687 188.07364,61.926948 194.05395,61.926905 L 197.9706,61.926905 L 197.9706,70.960459 L 194.05395,70.960459 C 188.07364,70.960493 183.94642,72.181812 181.6723,74.624418 C 179.39807,77.067085 178.26098,81.468043 178.26102,87.827305 L 178.26102,102.92534 C 178.26098,112.23263 176.49217,118.44451 172.9546,121.561 C 169.45906,124.67745 162.46807,126.23568 151.98159,126.2357 L 148.00178,126.2357 L 148.00178,117.13898"
     id="text14065" />
  <path
     transform="matrix(1,0,-0.12772,1,0,0)"
     style="font-size:129.37565613px;opacity:0.38709675;fill:#06c;fill-opacity:1"
     d="M 34.448034,112.40356 L 34.448034,121.50028 L 30.531388,121.50028 C 20.044833,121.50026 13.011723,119.94203 9.432038,116.82558 C 5.8943848,113.70909 4.1255788,107.49721 4.1256146,98.189923 L 4.1256146,83.091885 C 4.1255788,76.732623 2.9884892,72.331665 0.71434244,69.888998 C -1.5598692,67.446391 -5.6870832,66.225073 -11.667312,66.225039 L -15.520786,66.225039 L -15.520786,57.191485 L -11.667312,57.191485 C -5.6449688,57.191528 -1.5177547,55.991267 0.71434244,53.590697 C 2.9884892,51.148107 4.1255788,46.789264 4.1256146,40.514154 L 4.1256146,25.352944 C 4.1255788,16.04573 5.8943848,9.8549094 9.432038,6.7804624 C 13.011723,3.6640883 20.044833,2.1058544 30.531388,2.1057561 L 34.448034,2.1057561 L 34.448034,11.13931 L 30.152358,11.13931 C 24.214162,11.139399 20.339634,12.065917 18.528764,13.918865 C 16.717793,15.771987 15.812333,19.667571 15.81238,25.605631 L 15.81238,41.272214 C 15.812333,47.884239 14.843701,52.685284 12.906482,55.675364 C 11.011288,58.665533 7.7474197,60.687025 3.1148673,61.739848 C 7.7895341,62.876976 11.07446,64.940583 12.969654,67.930675 C 14.864758,70.920832 15.812333,75.70082 15.81238,82.270652 L 15.81238,97.937236 C 15.812333,103.87537 16.717793,107.77096 18.528764,109.624 C 20.339634,111.47703 24.214162,112.40354 30.152358,112.40356 L 34.448034,112.40356"
     id="text7698" />
  <path
     transform="matrix(1,0,-0.12772,1,0,0)"
     style="font-size:129.37565613px;opacity:0.38709675;fill:#06c;fill-opacity:1"
     d="M 1.8936918,112.40356 L 1.8936918,121.50028 L -2.0229541,121.50028 C -12.509509,121.50026 -19.542619,119.94203 -23.122304,116.82558 C -26.659957,113.70909 -28.428763,107.49721 -28.428728,98.189923 L -28.428728,83.091885 C -28.428763,76.732623 -29.565853,72.331665 -31.84,69.888998 C -34.114211,67.446391 -38.241425,66.225073 -44.221654,66.225039 L -48.075129,66.225039 L -48.075129,57.191485 L -44.221654,57.191485 C -38.199311,57.191528 -34.072097,55.991267 -31.84,53.590697 C -29.565853,51.148107 -28.428763,46.789264 -28.428728,40.514154 L -28.428728,25.352944 C -28.428763,16.04573 -26.659957,9.8549094 -23.122304,6.7804624 C -19.542619,3.6640883 -12.509509,2.1058544 -2.0229541,2.1057561 L 1.8936918,2.1057561 L 1.8936918,11.13931 L -2.4019843,11.13931 C -8.3401807,11.139399 -12.214708,12.065917 -14.025578,13.918865 C -15.836549,15.771987 -16.742009,19.667571 -16.741962,25.605631 L -16.741962,41.272214 C -16.742009,47.884239 -17.710641,52.685284 -19.64786,55.675364 C -21.543054,58.665533 -24.806923,60.687025 -29.439475,61.739848 C -24.764808,62.876976 -21.479883,64.940583 -19.584689,67.930675 C -17.689584,70.920832 -16.742009,75.70082 -16.741962,82.270652 L -16.741962,97.937236 C -16.742009,103.87537 -15.836549,107.77096 -14.025578,109.624 C -12.214708,111.47703 -8.3401807,112.40354 -2.4019843,112.40356 L 1.8936918,112.40356"
     id="text7702" />
  <path
     transform="matrix(1,0,-0.12772,1,0,0)"
     style="font-size:129.37565613px;opacity:0.38709675;fill:#06c;fill-opacity:1"
     d="M 110.52103,112.40356 L 114.94305,112.40356 C 120.83905,112.40355 124.67146,111.49809 126.4403,109.68718 C 128.25119,107.87625 129.15665,103.95961 129.15669,97.937243 L 129.15669,82.27066 C 129.15665,75.700827 130.10423,70.920839 131.99941,67.930682 C 133.89452,64.94059 137.17945,62.876983 141.8542,61.739855 C 137.17945,60.687033 133.89452,58.665541 131.99941,55.675371 C 130.10423,52.685292 129.15665,47.884247 129.15669,41.272222 L 129.15669,25.605639 C 129.15665,19.625465 128.25119,15.72988 126.4403,13.918873 C 124.67146,12.065925 120.83905,11.139407 114.94305,11.139318 L 110.52103,11.139318 L 110.52103,2.1057637 L 114.50085,2.1057637 C 124.98732,2.105862 131.97832,3.6640959 135.47386,6.78047 C 139.01143,9.854917 140.78023,16.045738 140.78028,25.352952 L 140.78028,40.514162 C 140.78023,46.789271 141.91732,51.148115 144.19155,53.590705 C 146.46568,55.991274 150.5929,57.191535 156.57321,57.191492 L 160.48985,57.191492 L 160.48985,66.225046 L 156.57321,66.225046 C 150.5929,66.225081 146.46568,67.446399 144.19155,69.889005 C 141.91732,72.331673 140.78023,76.732631 140.78028,83.091892 L 140.78028,98.18993 C 140.78023,107.49722 139.01143,113.7091 135.47386,116.82558 C 131.97832,119.94204 124.98732,121.50027 114.50085,121.50029 L 110.52103,121.50029 L 110.52103,112.40356"
     id="text7708" />
  <path
     transform="matrix(1,0,-0.12772,1,0,0)"
     style="font-size:129.37565613px;opacity:0.38709675;fill:#06c;fill-opacity:1"
     d="M 143.08388,112.40356 L 147.5059,112.40356 C 153.40189,112.40355 157.23431,111.49809 159.00315,109.68718 C 160.81403,107.87625 161.71949,103.95961 161.71953,97.937243 L 161.71953,82.27066 C 161.71949,75.700827 162.66707,70.920839 164.56226,67.930682 C 166.45737,64.94059 169.74229,62.876983 174.41704,61.739855 C 169.74229,60.687033 166.45737,58.665541 164.56226,55.675371 C 162.66707,52.685292 161.71949,47.884247 161.71953,41.272222 L 161.71953,25.605639 C 161.71949,19.625465 160.81403,15.72988 159.00315,13.918873 C 157.23431,12.065925 153.40189,11.139407 147.5059,11.139318 L 143.08388,11.139318 L 143.08388,2.1057637 L 147.06369,2.1057637 C 157.55017,2.105862 164.54116,3.6640959 168.0367,6.78047 C 171.57427,9.854917 173.34308,16.045738 173.34312,25.352952 L 173.34312,40.514162 C 173.34308,46.789271 174.48017,51.148115 176.7544,53.590705 C 179.02852,55.991274 183.15574,57.191535 189.13605,57.191492 L 193.0527,57.191492 L 193.0527,66.225046 L 189.13605,66.225046 C 183.15574,66.225081 179.02852,67.446399 176.7544,69.889005 C 174.48017,72.331673 173.34308,76.732631 173.34312,83.091892 L 173.34312,98.18993 C 173.34308,107.49722 171.57427,113.7091 168.0367,116.82558 C 164.54116,119.94204 157.55017,121.50027 147.06369,121.50029 L 143.08388,121.50029 L 143.08388,112.40356"
     id="text7712" />
  <g
     id="g7673">
    <path
       d="M 23.725985,65.693969 C 23.725985,92.915295 45.871845,115.06243 73.091892,115.06243 C 100.31578,115.06243 122.46164,92.915295 122.46164,65.693969 C 122.46164,38.472643 100.31578,16.326783 73.093171,16.326783 C 45.871845,16.326783 23.725985,38.472643 23.725985,65.693969 z "
       style="font-size:12px;opacity:0.36000001;fill:#999;stroke:none"
       id="path718" />
    <path
       d="M 19.037989,62.832066 C 19.037989,90.053392 41.183849,112.19925 68.405175,112.19925 C 95.627779,112.19925 117.77236,90.053392 117.77236,62.832066 C 117.77236,35.61074 95.627779,13.46488 68.405175,13.46488 C 41.183849,13.46488 19.037989,35.61074 19.037989,62.832066 z "
       style="font-size:12px;fill:#06c;stroke:none"
       id="path719" />
    <path
       d="M 22.613449,62.11723 C 22.613449,87.406324 43.116081,107.90896 68.403896,107.90896 C 93.694269,107.90896 114.19434,87.406324 114.19434,62.11723 C 114.19434,36.828136 93.695547,16.326783 68.405175,16.326783 C 43.116081,16.326783 22.613449,36.828136 22.613449,62.11723 z "
       style="font-size:12px;fill:url(#XMLID_21_);stroke:none"
       id="path726" />
    <path
       d="M 27.622419,66.589113 C 27.622419,39.736075 46.80791,17.805049 70.952498,16.400952 C 70.109784,16.354916 69.260676,16.326783 68.405175,16.326783 C 43.117359,16.326783 22.614728,36.828136 22.614728,62.11723 C 22.614728,73.798858 26.997097,84.45107 34.195332,92.540613 C 30.025241,84.965138 27.622419,76.085311 27.622419,66.589113 z "
       style="font-size:12px;opacity:0.36000001;fill:white;stroke:none"
       id="path727" />
    <path
       d="M 69.108502,59.870419 C 84.611116,59.870419 98.882267,57.617213 110.21479,53.840985 C 106.59713,32.504591 89.262028,16.328062 68.407732,16.328062 C 47.703054,16.328062 30.461304,32.276968 26.677402,53.388298 C 38.210692,57.436906 52.992075,59.870419 69.108502,59.870419 z "
       style="font-size:12px;opacity:0.5;fill:url(#XMLID_22_);stroke:none"
       id="path734" />
    <g
       transform="matrix(1.278777,0,0,1.278777,-41.22182,13.46488)"
       id="g735"
       style="font-size:12px;stroke:black">
      <path
         d="M 91.36,57.105 C 91.36,61.594 91.36,64.207 95.767,64.207 L 95.767,65.676 L 75.687,65.676 L 75.687,64.207 C 80.177,64.207 80.177,61.595 80.177,57.105 L 80.177,37.188 C 80.177,32.862 80.177,29.924 75.687,29.924 L 75.687,28.455 L 91.36,28.455 L 91.36,57.105 z M 85.728,10.416 C 89.075,10.416 91.85,13.191 91.85,16.538 C 91.85,19.884 89.075,22.66 85.728,22.66 C 82.382,22.66 79.607,19.885 79.607,16.538 C 79.606,13.191 82.382,10.416 85.728,10.416 z "
         style="fill:white;stroke:none"
         id="path736" />
    </g>
  </g>
  <path
     transform="matrix(1,0,-0.12772,1,0,0)"
     style="font-size:129.37565613px;fill:url(#linearGradient2841);fill-opacity:1"
     d="M 37.263946,114.86418 L 37.263946,123.96091 L 33.3473,123.96091 C 22.860745,123.96089 15.827636,122.40265 12.24795,119.2862 C 8.7102971,116.16972 6.941491,109.95784 6.9415269,100.65055 L 6.9415269,85.552509 C 6.941491,79.193248 5.8044015,74.79229 3.5302547,72.349622 C 1.2560431,69.907016 -2.871171,68.685698 -8.8513999,68.685663 L -12.704874,68.685663 L -12.704874,59.652109 L -8.8513999,59.652109 C -2.8290565,59.652153 1.2981575,58.451891 3.5302547,56.051322 C 5.8044015,53.608732 6.941491,49.249889 6.9415269,42.974779 L 6.9415269,27.813569 C 6.941491,18.506355 8.7102971,12.315534 12.24795,9.2410871 C 15.827636,6.1247129 22.860745,4.5664791 33.3473,4.5663808 L 37.263946,4.5663808 L 37.263946,13.599935 L 32.96827,13.599935 C 27.030074,13.600024 23.155546,14.526542 21.344676,16.37949 C 19.533705,18.232611 18.628245,22.128196 18.628293,28.066256 L 18.628293,43.732839 C 18.628245,50.344864 17.659613,55.145909 15.722394,58.135988 C 13.8272,61.126158 10.563332,63.14765 5.9307796,64.200472 C 10.605446,65.337601 13.890372,67.401208 15.785566,70.3913 C 17.680671,73.381457 18.628245,78.161444 18.628293,84.731277 L 18.628293,100.39786 C 18.628245,106.336 19.533705,110.23158 21.344676,112.08463 C 23.155546,113.93765 27.030074,114.86417 32.96827,114.86418 L 37.263946,114.86418"
     id="text2096" />
  <path
     transform="matrix(1,0,-0.12772,1,0,0)"
     style="font-size:129.37565613px;fill:url(#linearGradient2837);fill-opacity:1"
     d="M 4.7096059,114.86418 L 4.7096059,123.96091 L 0.79296007,123.96091 C -9.693595,123.96089 -16.726705,122.40265 -20.30639,119.2862 C -23.844043,116.16972 -25.612849,109.95784 -25.612813,100.65055 L -25.612813,85.552509 C -25.612849,79.193248 -26.749939,74.79229 -29.024086,72.349622 C -31.298297,69.907016 -35.425511,68.685698 -41.40574,68.685663 L -45.259214,68.685663 L -45.259214,59.652109 L -41.40574,59.652109 C -35.383397,59.652153 -31.256183,58.451891 -29.024086,56.051322 C -26.749939,53.608732 -25.612849,49.249889 -25.612813,42.974779 L -25.612813,27.813569 C -25.612849,18.506355 -23.844043,12.315534 -20.30639,9.2410871 C -16.726705,6.1247129 -9.693595,4.5664791 0.79296007,4.5663808 L 4.7096059,4.5663808 L 4.7096059,13.599935 L 0.41392983,13.599935 C -5.5242665,13.600024 -9.398794,14.526542 -11.209664,16.37949 C -13.020635,18.232611 -13.926095,22.128196 -13.926048,28.066256 L -13.926048,43.732839 C -13.926095,50.344864 -14.894727,55.145909 -16.831946,58.135988 C -18.72714,61.126158 -21.991008,63.14765 -26.623561,64.200472 C -21.948894,65.337601 -18.663968,67.401208 -16.768775,70.3913 C -14.87367,73.381457 -13.926095,78.161444 -13.926048,84.731277 L -13.926048,100.39786 C -13.926095,106.336 -13.020635,110.23158 -11.209664,112.08463 C -9.398794,113.93765 -5.5242665,114.86417 0.41392983,114.86418 L 4.7096059,114.86418"
     id="text2100" />
  <path
     transform="matrix(1,0,-0.12772,1,0,0)"
     style="font-size:129.37565613px;fill:url(#linearGradient2829);fill-opacity:1"
     d="M 113.33694,114.86418 L 117.75896,114.86418 C 123.65496,114.86417 127.48737,113.95871 129.25621,112.1478 C 131.0671,110.33687 131.97256,106.42023 131.9726,100.39786 L 131.9726,84.731277 C 131.97256,78.161444 132.92014,73.381457 134.81532,70.3913 C 136.71043,67.401208 139.99536,65.337601 144.67011,64.200472 C 139.99536,63.14765 136.71043,61.126158 134.81532,58.135988 C 132.92014,55.145909 131.97256,50.344864 131.9726,43.732839 L 131.9726,28.066256 C 131.97256,22.086082 131.0671,18.190497 129.25621,16.37949 C 127.48737,14.526542 123.65496,13.600024 117.75896,13.599935 L 113.33694,13.599935 L 113.33694,4.5663808 L 117.31676,4.5663808 C 127.80323,4.5664791 134.79423,6.1247129 138.28977,9.2410871 C 141.82734,12.315534 143.59614,18.506355 143.59619,27.813569 L 143.59619,42.974779 C 143.59614,49.249889 144.73323,53.608732 147.00746,56.051322 C 149.28159,58.451891 153.40881,59.652153 159.38912,59.652109 L 163.30576,59.652109 L 163.30576,68.685663 L 159.38912,68.685663 C 153.40881,68.685698 149.28159,69.907016 147.00746,72.349622 C 144.73323,74.79229 143.59614,79.193248 143.59619,85.552509 L 143.59619,100.65055 C 143.59614,109.95784 141.82734,116.16972 138.28977,119.2862 C 134.79423,122.40265 127.80323,123.96089 117.31676,123.96091 L 113.33694,123.96091 L 113.33694,114.86418"
     id="text2104" />
  <path
     transform="matrix(1,0,-0.12772,1,0,0)"
     style="font-size:129.37565613px;fill:url(#linearGradient2825);fill-opacity:1"
     d="M 145.89979,114.86418 L 150.32181,114.86418 C 156.2178,114.86417 160.05022,113.95871 161.81906,112.1478 C 163.62994,110.33687 164.5354,106.42023 164.53544,100.39786 L 164.53544,84.731277 C 164.5354,78.161444 165.48298,73.381457 167.37817,70.3913 C 169.27328,67.401208 172.5582,65.337601 177.23295,64.200472 C 172.5582,63.14765 169.27328,61.126158 167.37817,58.135988 C 165.48298,55.145909 164.5354,50.344864 164.53544,43.732839 L 164.53544,28.066256 C 164.5354,22.086082 163.62994,18.190497 161.81906,16.37949 C 160.05022,14.526542 156.2178,13.600024 150.32181,13.599935 L 145.89979,13.599935 L 145.89979,4.5663808 L 149.8796,4.5663808 C 160.36608,4.5664791 167.35707,6.1247129 170.85261,9.2410871 C 174.39018,12.315534 176.15899,18.506355 176.15903,27.813569 L 176.15903,42.974779 C 176.15899,49.249889 177.29608,53.608732 179.57031,56.051322 C 181.84444,58.451891 185.97165,59.652153 191.95196,59.652109 L 195.86861,59.652109 L 195.86861,68.685663 L 191.95196,68.685663 C 185.97165,68.685698 181.84444,69.907016 179.57031,72.349622 C 177.29608,74.79229 176.15899,79.193248 176.15903,85.552509 L 176.15903,100.65055 C 176.15899,109.95784 174.39018,116.16972 170.85261,119.2862 C 167.35707,122.40265 160.36608,123.96089 149.8796,123.96091 L 145.89979,123.96091 L 145.89979,114.86418"
     id="text2108" />
</svg>
